<?xml version="1.0" encoding="utf-8" ?><svg xmlns="http://www.w3.org/2000/svg" xmlns:xlink="http://www.w3.org/1999/xlink" width="3000" height="2400" viewBox="0 0 3000 2400"><path fill="#1C1C1C" transform="scale(2.92969 3.37079)" d="M386.574 109.027C383.514 106.684 379.916 103.683 376.805 101.473C364.455 92.7022 357.405 76.0914 379.621 74.8934C403.496 73.6059 427.383 82.9112 445.282 98.6385C470.153 120.57 476.588 147.69 477.722 179.365C504.05 195.498 512.119 211.986 515.309 242.058C526.713 248.749 535.501 251.962 548.005 256.047C548.132 235.259 548.421 213.444 548.056 192.725C536.453 192.904 525.045 193.256 513.452 192.405C511.519 186.376 511.085 157.949 513.36 153.085C517.19 149.476 541.436 150.969 548.054 151.141C548.02 147.007 547.197 123.545 549.246 122.026C553.534 118.848 585.086 118.18 588.735 122.314C590.614 127.203 589.599 144.962 589.816 151.084L766.523 151.033L821.658 151.015C831.137 151.017 847.474 150.786 856.66 151.823C857.838 161.898 859.141 182.306 856.747 192.068C842.183 194.51 815.215 192.803 799.625 193.058L799.646 201.866C809.59 203.76 810.589 210.017 812.171 218.929C817.953 218.523 828 217.741 832.604 221.642C834.298 223.078 834.697 228.417 834.767 230.614C835.133 242.182 834.979 253.982 834.965 265.566L834.93 326.301L834.946 378.125C834.966 387.151 835.094 396.242 834.888 405.266C834.773 410.28 832.946 412.013 828.842 414.478C815.553 415.193 799.3 414.756 785.8 414.745L708.708 414.717L662.004 414.803C654.988 414.817 639.988 415.256 633.89 413.963C630.964 411.425 629.311 409.887 629.227 405.672C629.002 394.475 629.1 383.001 629.107 371.81L629.153 305.709L629.184 254.293C629.193 244.638 628.852 234.096 629.799 224.55C630.525 217.243 646.921 218.556 652.134 218.705C652.758 209.067 653.798 203.972 664.057 201.383L664.031 192.97C639.31 192.803 614.384 192.3 589.697 193.014C589.646 215.315 589.11 241.907 589.921 264.043C595.807 264.615 618.386 264.834 618.587 272.748C615.699 279.931 596.976 284.255 589.76 286.267C589.236 305.183 589.653 325.846 589.674 344.892C611.284 347.757 606.741 366.674 606.905 383.278C607.019 394.939 609.16 413.256 598.226 420.274C595.957 421.723 592.361 422.92 589.751 423.673C589.081 439.702 589.84 461.206 589.829 477.8L589.706 577.417C589.693 596.47 589.982 616.133 589.552 635.115C610.498 634.759 631.325 636.242 635.036 663.984C635.263 665.686 634.667 667.499 633.547 668.825C626.263 670.795 479.577 670.189 475.552 669.01C470.746 663.68 479.216 649.145 484.032 645.379C490.892 640.015 498.273 638.465 506.708 637.804C487.508 619.894 467.693 602.793 448.236 585.167C434.149 572.406 430.777 570.435 436.945 551.365C430.696 544.649 429.243 540.984 428.941 531.741C424.786 531.246 422.829 530.798 418.84 529.776C403.775 542.939 390.622 550.217 369.815 548.935C368.726 548.865 367.64 548.756 366.559 548.61C357.461 565.203 345.131 615.575 343.644 635.103C358.604 634.226 383.745 630.546 396.229 641.378C402.023 646.406 408.225 660.32 402.517 667.345C399.73 670.776 390.714 670.007 386.393 669.92C361.611 669.588 336.826 669.509 312.042 669.684C301.106 669.715 289.913 669.935 278.969 669.759C266.145 669.552 274.834 647.291 280.413 642.81C289.561 635.344 302.152 635.513 313.275 635.495L324.275 580.619C328.475 559.69 327.672 546.395 344.663 531.323C340.496 522.39 340.828 517.347 341.025 507.687C328.885 503.646 318.626 498.028 306.481 495.071C299.506 497.675 272.856 508.661 278.22 491.165C278.669 489.702 279.522 487.817 280.303 486.507C281.308 484.859 282.345 483.231 283.413 481.624C274.164 476.697 265.591 471.177 257.14 464.976C235.269 448.928 186.491 407.597 178.937 382.744C178.114 380.036 177.494 376.401 178.757 373.727C179.328 372.518 180.488 371.774 181.74 371.409C190.105 368.971 208.194 377.393 216.031 380.927C202.495 366.128 149.424 322.766 149.576 305.152C149.59 303.511 150.112 301.974 151.367 300.871C153.867 298.672 158.263 298.893 161.351 299.248C181.919 301.609 203.162 310.51 220.854 320.977C212.885 312.267 204.438 303.905 195.947 295.704C183.157 283.351 134.175 240.031 134.345 225.444C134.361 224.063 134.715 222.922 135.743 221.97C140.617 217.454 155.764 219.375 162.075 219.884C201.616 223.073 238.251 241.905 263.856 272.205C291.582 304.987 303.168 343.884 305.303 386.136C306.39 407.644 305.495 418.564 313.521 438.701C337.999 409.822 389.26 375.505 428.076 372.408C429.822 372.279 431.571 372.196 433.321 372.157C432.08 355.675 429.168 344.12 421.307 329.381C402.729 294.548 364.93 270.065 373.76 225.992C375.985 214.421 381.152 203.617 388.764 194.623C390.665 192.412 393.301 189.814 395.442 187.84C392.4 184.584 390.8 183.216 386.752 181.38C378.601 179.972 372.666 179.837 364.385 180.018C347.965 180.378 330.018 184.73 313.739 182.832C296.686 180.844 303.948 163.436 313.939 157.797C322.922 152.007 330.997 149.394 341.026 146.399C330.295 145.133 320.105 142.521 309.64 140.515C277.671 134.389 273.364 119.492 307.548 109.609C332.42 102.433 358.751 101.989 383.851 108.32C384.761 108.547 385.669 108.782 386.574 109.027ZM523.576 467.401C517.888 477.799 510.466 489.236 501.219 497.044C494.516 502.705 495.174 505.873 492.932 513.917C488.454 528.857 481.328 543.646 468.497 553.218L467.335 561.938C481.997 574.463 492.817 585.411 506.481 599.173C522.464 614.7 529.837 622.825 548.001 636.032C548.205 618.852 548.441 455.138 547.548 454.06C537.641 461.088 534.732 462.866 523.576 467.401ZM548.028 354.824C548.422 336.39 548.57 311.958 547.972 293.549C538.368 293.706 528.762 293.773 519.157 293.75C516.134 293.857 511.637 293.916 508.833 294.723C498.16 297.797 488.06 300.27 477.079 302.167C486.373 337.645 502.198 349.353 518.444 378.926C520.498 382.698 522.534 386.481 524.55 390.273C530.051 386.488 535.609 382.789 541.224 379.177C536.971 368.085 538.538 362.315 548.028 354.824ZM663.522 209.459C661.973 211.896 660.597 213.451 661.09 216.293C663.424 220.135 671.251 219.026 675.363 218.822C675.802 216.365 674.887 213.031 674.206 210.602C669.081 213.017 667.532 214.226 663.522 209.459ZM790.426 209.768C788.766 212 787.638 213.217 787.975 216.099C790.846 220.624 798.898 218.673 803.694 218.773C802.89 215.118 802.486 213.627 800.978 210.32C793.428 214.704 796.077 212.759 790.426 209.768ZM672.954 201.821C682.367 204.604 683.459 210.046 684.343 218.993L746.949 218.894C755.917 218.891 770.473 218.43 778.825 219.042C779.398 214.806 779.839 212.4 781.294 208.319C783.562 204.821 784.83 203.127 789.209 202.191C789.937 202.038 790.667 201.898 791.399 201.772L791.424 193.086L719.802 193.025C704.092 193.004 688.438 192.675 672.703 192.954L672.954 201.821Z"/><path fill="#DD5584" transform="scale(2.92969 3.37079)" d="M375.379 85.5077C432.476 85.487 463.045 119.665 467.575 174.92C446.783 168.659 427.888 168.35 408.225 178.923C403.635 181.394 399.346 184.386 395.442 187.84C392.4 184.584 390.8 183.216 386.752 181.38C388.258 180.097 389.888 178.727 389.988 176.591C390.034 175.613 389.584 174.68 388.873 174.002C380.291 165.82 328.77 172.278 314.48 172.884C330.024 156.384 350.1 154.282 371.451 152.967C374.558 152.776 385.893 153.866 385.447 149.228C380.761 143.182 360.34 140.471 352.717 138.911C334.388 135.159 313.16 133.127 295.902 125.626C325.56 114.388 350.554 111.254 381.73 119.053C394.524 122.253 406.341 126.497 418.685 130.998C420.109 131.518 422.207 131.086 423.331 129.879C424.295 120.951 382.723 93.5057 375.379 85.5077Z"/><path fill="#DD5584" transform="scale(2.92969 3.37079)" d="M800.351 228.998L825.026 228.99L825.031 374.75L825.039 405.007L639.024 405.084L638.988 228.989L664.005 228.994C663.87 233.185 662.796 243.328 668.74 244.083C673.611 242.018 672.714 233.317 672.581 229.006L791.502 229.001C791.367 233.32 790.25 243.228 796.236 244.058C801.293 241.807 800.474 233.572 800.351 228.998Z"/><path fill="#1C1C1C" transform="scale(2.92969 3.37079)" d="M682.632 257.75C705.145 256.586 737.934 255.16 737.129 286.543C736.509 310.754 722.103 315.67 700.75 315.502L693.353 315.505C693.514 324.884 693.421 334.536 693.441 343.937C687.301 343.844 681.16 343.783 675.019 343.754L675.009 257.953L682.632 257.75Z"/><path fill="#DD5584" transform="scale(2.92969 3.37079)" d="M693.268 273.999C699.931 273.926 708.31 273.227 714.212 276.651C722.417 281.409 721.065 288.91 716.62 295.734C709.514 300.841 701.924 299.717 693.428 299.477C693.5 290.984 693.447 282.491 693.268 273.999Z"/><path fill="#1C1C1C" transform="scale(2.92969 3.37079)" d="M751.336 297.724C761.329 297.157 775.259 297.651 783.617 303.63C795.612 312.291 796.982 331.732 788.546 343.193C781.611 352.614 770.603 354.16 759.74 353.689C756.736 353.559 753.819 353.647 750.84 354.122C749.955 355.105 750.175 355.818 750.027 357.375C749.835 366.117 749.974 375.232 750.002 384.008L732.018 383.902L732.025 315.725C738.269 309.173 739.755 306.461 742.07 298.019L751.336 297.724Z"/><path fill="#DD5584" transform="scale(2.92969 3.37079)" d="M749.98 313.509C763.725 313.133 785.189 314.588 772.82 334.39C766.116 339.322 757.968 338.269 749.987 338.005L749.98 313.509Z"/><path fill="#DD5584" transform="scale(2.92969 3.37079)" d="M444.565 374.704C443.195 342.391 428.437 313.115 407.145 289.31C396.053 276.908 387.105 265.621 384.256 248.683C381.672 233.624 385.174 218.155 393.994 205.679C403.167 192.909 416.532 185.073 431.965 182.527C448.878 179.734 466.205 183.831 480.077 193.902C495.651 205.143 501.667 219.88 504.529 237.9L497.958 237.901C495.697 244.445 494.661 246.869 490.396 252.257C489.498 248.679 486.897 248.482 483.778 247.762C481.41 250.736 477.15 256.917 472.679 254.982C463.247 259.287 456.127 254.701 448.027 250.103C441.783 248.714 436.223 248.209 430.489 251.722C422.452 256.646 422.74 267.661 427.591 274.743C433.334 283.309 441.712 287.557 451.081 290.78C452.204 298.006 460.68 300.806 466.64 302.324C474.703 349.102 514.484 373.49 521.348 419.637C524.295 439.449 518.085 459.992 505.925 475.702C486.29 501.066 456.563 516.44 425.161 520.775C426.754 517.894 431.153 511.019 429.494 508.108C428.117 507.815 426.003 508.849 425.072 509.751C413.416 521.036 403.536 531.434 387.737 536.936C371.277 542.668 355.644 538.813 350.183 520.746C347.406 511.558 347.459 504.887 351.887 496.347C354.251 495.585 357.914 494.946 360.44 494.432C361.178 495.121 362.843 496.545 363.811 496.714C400.707 502.778 438.097 482.419 460.093 453.448C481.148 425.715 481.913 388.284 444.565 374.704Z"/><path fill="#1C1C1C" transform="scale(2.92969 3.37079)" d="M448.027 250.103C439.463 235.114 437.396 213.724 455.433 204.598C470.709 196.867 490.444 218.644 484.668 232.06C484.832 237.122 485.169 242.882 483.778 247.762C481.41 250.736 477.15 256.917 472.679 254.982C463.247 259.287 456.127 254.701 448.027 250.103Z"/><path fill="#FAF9FA" transform="scale(2.92969 3.37079)" d="M452.525 236.647C451.554 231.128 450.657 226.062 453.005 220.675C456.231 213.274 464.855 211.047 471.864 214.509C479.125 218.096 482.144 224.765 484.668 232.06C484.832 237.122 485.169 242.882 483.778 247.762C481.41 250.736 477.15 256.917 472.679 254.982C480.472 246.475 478.26 229.119 467.777 223.561C464.508 221.828 461.595 222.799 458.376 223.95C454.617 227.864 454.035 231.486 452.525 236.647Z"/><path fill="#DD5584" transform="scale(2.92969 3.37079)" d="M147.409 230.52C160.866 230.375 174.276 232.141 187.238 235.763C236.82 249.759 270.445 286.489 286.262 334.999C290.688 348.575 293.169 365.17 294.751 379.351C295.73 388.433 296.454 397.54 296.923 406.663C297.934 423.189 297.922 432.111 306.354 447.236C299.727 455.012 293.851 464.002 288.462 472.655C254.925 453.782 212.277 415.755 191.252 383.853C196.91 385.067 204.177 387.92 209.57 389.998C216.445 392.829 223.228 395.879 229.77 399.421C235.878 402.729 242.198 407.086 248.661 409.554L249.366 409.17C249.495 408.763 249.571 408.598 249.626 408.201C251.455 395.15 188.956 340.743 178.22 329.833C172.285 323.801 167.094 317.515 162.359 310.506C192.624 314.683 223.137 332.765 245.415 353.057C247.34 354.81 252.376 359.705 254.88 359.042C258.25 353.996 251.491 345.016 248.642 340.631C227.695 308.393 198.426 283.216 171.496 256.234C163.193 247.923 155.16 239.348 147.409 230.52Z"/><path fill="#DD5584" transform="scale(2.92969 3.37079)" d="M430.897 382.698C440.808 381.19 455.448 385.642 460.378 394.323C479.457 427.921 438.542 468.658 409.249 479.991C399.256 483.857 390.908 486.132 380.865 488.001C385.696 483.063 403.245 466.177 401.555 459.004C401.287 458.845 401.02 458.686 400.752 458.527C394.709 462.902 383.893 471.146 378.128 474.656C359.839 485.793 342.397 488.713 321.427 488.355C329.023 483.558 336.734 478.852 344.016 473.601C349.045 470.03 372.581 452.22 372.356 447.8C370.754 447.25 368.436 447.871 366.964 448.687C341.164 462.981 318.9 479.401 290.836 489.546C297.879 478.343 305.931 464.752 314.024 454.614C340.89 420.955 387.535 388.114 430.897 382.698Z"/><path fill="#F5BDCB" transform="scale(2.92969 3.37079)" d="M501.108 245.705C523.985 260.458 541.174 265.402 568.1 269.834C575.496 271.052 586.548 272.786 593.537 274.459C548.448 285.157 497.16 290.045 455.379 265.122C452.083 263.155 441.275 255.647 438.041 255.351C436.654 256.162 437.124 255.583 436.669 257.212C438.152 263.78 448.097 270.489 453.648 274.065C465.068 281.423 477.946 286.015 490.998 289.578C477.857 292.242 464.358 292.649 451.081 290.78C441.712 287.557 433.334 283.309 427.591 274.743C422.74 267.661 422.452 256.646 430.489 251.722C436.223 248.209 441.783 248.714 448.027 250.103C456.127 254.701 463.247 259.287 472.679 254.982C477.15 256.917 481.41 250.736 483.778 247.762C486.897 248.482 489.498 248.679 490.396 252.257L490.109 253.632L490.71 254.152C493.946 253.248 498.797 248.229 501.108 245.705Z"/><path fill="#F5BDCB" transform="scale(2.92969 3.37079)" d="M445.676 557.15C450.366 558.018 453.584 558.044 458.239 558.002L456.933 565.666C466.339 575.541 479.273 586.958 489.377 596.838C498.744 605.98 508.162 615.069 517.63 624.105C525.764 631.894 536.916 644.839 548.491 645.609C565.155 646.717 582.113 645.574 598.838 645.58C613.008 645.585 616.077 647.861 623.939 659.581L582.922 659.734L486.121 659.761C497.077 641.582 512.357 649.85 525.842 644.14C522.185 636.776 509.578 626.915 503.076 620.996L469.609 590.544C461.007 582.842 451.93 575.276 443.883 567.007C444.378 563.252 444.704 560.87 445.676 557.15Z"/><path fill="#F5BDCB" transform="scale(2.92969 3.37079)" d="M350.31 539.814C351.568 540.453 356.299 544.499 357.664 545.624C356.271 547.878 352.315 554.111 351.515 556.866C343.931 583.007 335.889 611.138 334.103 638.373C334.165 639.972 334.612 641.8 336.068 642.677C345.867 648.58 357.607 651.273 366.269 659.179L366.747 659.62C352.145 659.977 337.853 659.782 323.25 659.742L282.571 659.791C289.809 641.361 304.904 647.765 321.076 643.111C327.295 619.32 331.907 593.692 337.182 569.638C340.611 553.999 338.612 552.115 350.31 539.814Z"/><path fill="#DD5584" transform="scale(2.92969 3.37079)" d="M539.857 392.944C541.13 393.493 542.728 398.707 544.416 400.719C545.694 402.24 546.34 403.193 548.006 404.868L548.028 439.358C544.199 443.935 537.14 448.68 532.172 451.987C531.334 452.498 531.306 452.455 530.335 452.672C529.925 451.55 531.965 442.529 532.295 440.219C532.759 436.824 532.985 433.401 532.973 429.974C532.959 418.632 530.875 409.712 527.944 398.889C531.706 397.218 536.133 394.84 539.857 392.944Z"/><path fill="#DD5584" transform="scale(2.92969 3.37079)" d="M481.894 511.941L482.405 512.545C481.969 522.129 466.671 546.018 456.404 547.32C451.222 547.978 448.326 547.047 444.095 544.307C439.736 539.61 440.003 535.895 439.926 529.828C458.046 525.145 466.136 521.45 481.894 511.941Z"/><path fill="#DD5584" transform="scale(2.92969 3.37079)" d="M591.849 377.676C593 377.535 593.088 377.689 594.248 377.992C609.606 391.073 564.408 397.877 557.93 398.162C553.579 396.83 550.35 391.74 553.345 388.895C560.882 381.735 582.406 379.237 591.849 377.676Z"/><path fill="#DD5584" transform="scale(2.92969 3.37079)" d="M585.392 355.703C594.605 354.349 602.788 363.674 590.418 367.947C582.251 370.768 573.29 372.232 564.784 373.948C561.72 374.591 558.41 375.205 555.602 373.329C553.159 371.959 552.675 368.386 554.542 366.257C561.016 358.878 576.347 356.915 585.392 355.703Z"/><path fill="#DD5584" transform="scale(2.92969 3.37079)" d="M592.02 399.166C594.491 398.849 597.415 400.565 596.961 403.147C594.848 415.141 575.662 417.36 565.991 417.914C562.257 416.201 558.286 411.778 561.271 408.676C566.523 403.216 585.14 400.416 592.02 399.166Z"/><path fill="#F5BDCB" transform="scale(2.92969 3.37079)" d="M364.817 644.22C366.746 644.056 368.679 643.957 370.615 643.925C380.578 643.811 392.338 646.04 394.375 658.393C394.496 659.125 394.079 659.195 393.527 659.668L378.274 659.762C375.955 654.937 373.388 650.924 368.818 647.893C367.14 646.78 365.354 646.374 364.309 644.851L364.817 644.22Z"/></svg>